<svg xmlns="http://www.w3.org/2000/svg" viewBox="0 0 100 100">
  <defs>
    <linearGradient id="flameGrad" x1="0%" y1="100%" x2="0%" y2="0%">
      <stop offset="0%" style="stop-color:#ea580c"/>
      <stop offset="50%" style="stop-color:#f97316"/>
      <stop offset="100%" style="stop-color:#fbbf24"/>
    </linearGradient>
  </defs>
  <!-- Grill base -->
  <rect x="15" y="70" width="70" height="8" rx="2" fill="#374151"/>
  <rect x="20" y="78" width="8" height="12" rx="1" fill="#374151"/>
  <rect x="72" y="78" width="8" height="12" rx="1" fill="#374151"/>
  <!-- Grill lines -->
  <rect x="20" y="65" width="60" height="3" rx="1" fill="#6b7280"/>
  <rect x="25" y="60" width="2" height="10" fill="#6b7280"/>
  <rect x="35" y="60" width="2" height="10" fill="#6b7280"/>
  <rect x="45" y="60" width="2" height="10" fill="#6b7280"/>
  <rect x="55" y="60" width="2" height="10" fill="#6b7280"/>
  <rect x="65" y="60" width="2" height="10" fill="#6b7280"/>
  <rect x="73" y="60" width="2" height="10" fill="#6b7280"/>
  <!-- Flames -->
  <path d="M30 55 Q25 40 30 30 Q35 40 32 50 Q35 45 38 30 Q42 45 35 55 Z" fill="url(#flameGrad)"/>
  <path d="M50 50 Q45 35 50 20 Q55 35 52 45 Q55 40 58 25 Q62 40 55 50 Z" fill="url(#flameGrad)"/>
  <path d="M70 55 Q65 40 70 30 Q75 40 72 50 Q75 45 78 30 Q82 45 75 55 Z" fill="url(#flameGrad)"/>
  <!-- Meat on grill -->
  <ellipse cx="35" cy="58" rx="8" ry="4" fill="#7c2d12"/>
  <ellipse cx="60" cy="58" rx="10" ry="4" fill="#7c2d12"/>
</svg>

